# xmcd CD database file
#
# Track frame offsets:
#	150
#	20030
#	37387
#	50602
#	70555
#	89370
#	104518
#	121105
#	141618
#	162222
#
# Disc length: 2591 seconds
#
# Revision: 2
# Processed by: cddbd v1.5PL3 Copyright (c) Steve Scherf et al.
# Submitted via: CDex 1.51
#
DISCID=900a1d0a
DTITLE=Nappy Brown - I'm a Wild Man
DYEAR=1994
DGENRE=Blues
TTITLE0=Who, What, Where and When?
TTITLE1=Lonely and Blue
TTITLE2=In the Darkest Hour
TTITLE3=Shake, Rattle and Roll
TTITLE4=Sittin' in the Dark
TTITLE5=I'm a Wild Man
TTITLE6=Don't Hurt No More
TTITLE7=You Will or You Won't
TTITLE8=Give Me Your Love
TTITLE9=Love Me like You used to Do
EXTD=YEAR: 1994
EXTT0=
EXTT1=
EXTT2=
EXTT3=
EXTT4=
EXTT5=
EXTT6=
EXTT7=
EXTT8=
EXTT9=
PLAYORDER=
